<?xml version="1.0" encoding="UTF-8"?>
<svg id="Layer_1" data-name="Layer 1" xmlns="http://www.w3.org/2000/svg" viewBox="0 0 1024 1024">
  <defs>
    <style>
      .cls-1 {
        fill: #d966a5;
      }
    </style>
  </defs>
  <path class="cls-1" d="M783.34,182.54c-33.18,0-60.08,26.9-60.08,60.08s26.9,60.09,60.08,60.09,60.09-26.9,60.09-60.09-26.9-60.08-60.09-60.08Z"/>
  <path class="cls-1" d="M516.21,259.6c-139.18,0-252.41,113.22-252.41,252.4s113.23,252.4,252.41,252.4,252.4-113.23,252.4-252.4-113.23-252.4-252.4-252.4Zm0,414.08c-89.16,0-161.69-72.53-161.69-161.68s72.53-161.68,161.69-161.68,161.67,72.52,161.67,161.68-72.53,161.68-161.67,161.68Z"/>
  <path class="cls-1" d="M716.59,1024.46H307.39C137.64,1024.46-.46,886.36-.46,716.61V307.39C-.46,137.64,137.64-.46,307.39-.46h409.19c169.75,0,307.87,138.1,307.87,307.85v409.21c0,169.75-138.12,307.85-307.87,307.85ZM307.39,95.97c-116.59,0-211.43,94.84-211.43,211.42v409.21c0,116.59,94.84,211.43,211.43,211.43h409.19c116.59,0,211.45-94.84,211.45-211.43V307.39c0-116.59-94.85-211.42-211.45-211.42H307.39Z"/>
</svg>