<?xml version="1.0" encoding="UTF-8"?>
<svg id="Layer_1" data-name="Layer 1" xmlns="http://www.w3.org/2000/svg" viewBox="0 0 1024.91 1024.92">
  <defs>
    <style>
      .cls-1 {
        fill: #fff;
      }
    </style>
  </defs>
  <path class="cls-1" d="M783.8,183c-33.18,0-60.08,26.9-60.08,60.08s26.9,60.09,60.08,60.09,60.09-26.9,60.09-60.09-26.9-60.08-60.09-60.08Z"/>
  <path class="cls-1" d="M516.67,260.06c-139.18,0-252.41,113.22-252.41,252.4s113.23,252.4,252.41,252.4,252.4-113.23,252.4-252.4-113.23-252.4-252.4-252.4h0Zm0,414.08c-89.16,0-161.69-72.53-161.69-161.68s72.53-161.68,161.69-161.68,161.67,72.52,161.67,161.68-72.53,161.68-161.67,161.68Z"/>
  <path class="cls-1" d="M717.05,1024.92H307.85C138.1,1024.92,0,886.82,0,717.07V307.85C0,138.1,138.1,0,307.85,0h409.19c169.75,0,307.87,138.1,307.87,307.85v409.21c0,169.75-138.12,307.85-307.87,307.85h.01ZM307.85,96.43c-116.59,0-211.43,94.84-211.43,211.42v409.21c0,116.59,94.84,211.43,211.43,211.43h409.19c116.59,0,211.45-94.84,211.45-211.43V307.85c0-116.59-94.85-211.42-211.45-211.42H307.85Z"/>
</svg>