<?xml version="1.0" encoding="UTF-8"?>
<svg id="Layer_1" data-name="Layer 1" xmlns="http://www.w3.org/2000/svg" viewBox="0 0 1024 1024">
  <defs>
    <style>
      .cls-1 {
        fill: #d966a5;
      }
    </style>
  </defs>
  <path class="cls-1" d="M902.18,350.63c-73.31,51.84-115.68,119.29-109.5,210.53,6.12,90.39,54.84,151.92,135.65,191.53-1.99,6.67-3.53,12.89-5.68,18.89-26.13,72.61-66.18,137.04-117.14,194.52-54.08,61-106.86,72.62-180.97,38.72-60.37-27.61-119.34-28.18-180.53-2.66-94.22,39.29-134.84,27.66-200.3-51.88-98.14-119.27-150.07-255.32-147.99-410.37,.85-63.4,18.34-122.61,53.11-176.45,49.6-76.81,165.7-145.72,286.51-93.31,5.37,2.33,11.17,3.76,16.32,6.46,44.05,23.12,87.15,22.25,132.49,.95,61.46-28.89,126-37.16,192.5-17.29,51.63,15.43,92.74,45.19,125.53,90.36Z"/>
  <path class="cls-1" d="M719.74,1.36c-3.35,25.4-3.58,49.69-10.04,72.19-24.5,85.36-77.81,142.73-166.93,161.71-31.62,6.73-36.29,1.7-34.28-30.2,5.99-94.75,97.94-191.87,192.92-203.63,4.2-.52,8.52-.07,18.32-.07Z"/>
</svg>