<?xml version="1.0" encoding="UTF-8"?>
<svg id="Layer_1" data-name="Layer 1" xmlns="http://www.w3.org/2000/svg" viewBox="0 0 1024 1024">
  <defs>
    <style>
      .cls-1 {
        fill: #d966a5;
      }
    </style>
  </defs>
  <path class="cls-1" d="M511.59,1024C229.53,1024.02,.02,794.78,0,513.01-.02,230.12,229.49,1.02,512.74,1.18c281.43,.16,510.2,230.02,510.08,512.51-.12,281.23-229.59,510.29-511.22,510.31ZM886.3,407.29c.08-15.88-9.37-30.88-27.46-41.25-47.39-27.16-97.7-47.16-150.17-61.86-114.57-32.08-231.39-41.47-349.78-33.4-55.23,3.76-109.7,12.56-162.95,28.05-28.93,8.41-43.79,34.68-36.1,63.36,7.16,26.71,32.63,40.28,62.03,32.94,12.24-3.06,24.34-6.72,36.65-9.46,82.33-18.3,165.64-22,249.46-15.37,107.93,8.55,212.23,30.24,307.64,84.88,32.43,18.57,70.86-5.51,70.68-47.89Zm-71.81,170.15c.16-16.9-6.88-30-21.36-38.62-12.19-7.26-24.57-14.28-37.26-20.61-104.6-52.1-215.9-74.28-332.22-74.43-68.02-.09-134.64,9.01-199.83,28.31-24.67,7.3-36.71,30.2-29.27,54.26,6.73,21.79,28.6,32.57,52.5,25.89,137.08-38.37,272.69-32.07,406.93,13.59,35.37,12.03,68.47,28.99,101.17,46.96,28.19,15.49,59.24-3.55,59.34-35.34Zm-381.34,33.69c-64.62,.43-128.33,8.58-191.31,22.71-21.24,4.77-32.05,22.07-27.15,42.45,4.54,18.9,21.68,28.09,42.94,23,71.95-17.22,144.83-24.69,218.73-19.86,77.67,5.08,150.91,25.44,218.21,65.39,4.06,2.41,8.2,4.82,12.58,6.52,17.19,6.68,35.81-1.92,41.53-18.93,5.06-15.05,.35-31.19-12.47-40.51-6.35-4.62-13.25-8.55-20.14-12.36-88.01-48.8-183.13-68.28-282.93-68.42Z"/>
</svg>