<?xml version="1.0" encoding="UTF-8"?>
<svg id="Layer_1" data-name="Layer 1" xmlns="http://www.w3.org/2000/svg" viewBox="0 0 1024 1024">
  <defs>
    <style>
      .cls-1 {
        fill: #d966a5;
      }
    </style>
  </defs>
  <path class="cls-1" d="M949.48,414.99c-8.36,.81-16.75,1.24-25.15,1.28-92.1,.01-178.01-46.41-228.46-123.47v420.45c0,171.62-139.13,310.75-310.75,310.75S74.37,884.87,74.37,713.25,213.5,402.49,385.12,402.49h0c6.48,0,12.83,.59,19.21,.99v153.14c-6.38-.77-12.65-1.93-19.21-1.93-87.59,0-158.6,71.01-158.6,158.6s71.01,158.6,158.6,158.6,164.98-69.02,164.98-156.63L551.63,1.18h146.5c13.81,131.38,119.75,233.99,251.5,243.62v170.19"/>
</svg>