<?xml version="1.0" encoding="UTF-8"?>
<svg id="Layer_1" data-name="Layer 1" xmlns="http://www.w3.org/2000/svg" viewBox="0 0 792 612">
  <defs>
    <style>
      .cls-1 {
        fill: #e541a3;
      }

      .cls-2 {
        fill: #fff;
      }
    </style>
  </defs>
  <g>
    <path class="cls-2" d="M47.34,340.67c-10.05,2.23-14.21,.92-16.59-6.43,6.18,5.45,11.93,5.54,17.16,2.36-1.55-3.08-3.09-6.12-4.62-9.17,.69-.33,1.38-.66,2.08-.99,.53,1.14,1.01,2.32,1.61,3.43,1.86,3.48,4.52,4.78,8.23,2.8,4.41-2.35,7.47-4.94,6.94-11.07-1.99-22.88-2.91-45.86-5.15-68.71-.98-10.03,6.62-13.51,11.46-20.33,9.01,21.77,17.65,42.65,26.71,64.54,8.45-9.67,15.99-18.27,23.49-26.9,7.53-8.68,14.91-17.48,22.61-26.01,1.29-1.43,3.76-2.05,5.8-2.47,4.13-.85,8.34-1.3,13.93-2.12-1.75,2.34-2.58,3.87-3.79,5-18.67,17.56-37.33,35.13-56.16,52.52-2.6,2.4-3.33,3.99-1.53,7.41,8,15.19,16.1,30.3,27.72,43.09,3.27,3.59,7.83,5.98,11.54,9.21,.96,.84,1.78,3.29,1.26,4.14-2.77,4.52-5.91,8.83-9.06,13.1-2.3,3.12-5.13,3.78-7.77,.49-5.92-7.35-12.39-14.4-17.36-22.37-7.8-12.51-14.55-25.67-21.74-38.55-9.58,6.24-11.44,17.72-4.23,26.8,1.03,1.3,2.03,2.64,2.95,4.03,6.98,10.55,6.68,20.04-1.45,31.5-1.78-2.96-3.39-5.66-5.61-9.35-.69,9.42-.99,17.85-2.03,26.18-.63,5.04-1.68,10.25-3.78,14.82-4.24,9.25-14.01,10.49-20.53,2.77-14.21-16.86-19.17-50.28-2.56-68.44,.2-.22,.23-.6,.48-1.31Zm14.25,59.47c.23-2.24,.4-3.15,.41-4.08,.31-15.47,.63-30.94,.87-46.41,.08-4.95-2.19-7.62-6.66-8.17-4.12-.51-6.96,1.65-8.01,6.32-3.74,16.62,.12,31.93,8.31,46.41,1.07,1.89,2.85,3.37,5.08,5.93Zm14.23-105.5c-.38,.08-.76,.17-1.14,.25,.45,6.79,.9,13.58,1.41,21.24,2.74-2.62,4.72-4.51,6.7-6.41-2.44-5.28-4.71-10.18-6.98-15.09Z"/>
    <path class="cls-2" d="M128.3,309.43c3.7-3.9,6.76-7.4,10.17-10.52,.75-.69,2.99-.52,4.05,.1,1.49,.88,2.52,2.55,4.12,4.29,.84-3.93,1.42-7.59,2.42-11.14,4.11-14.69,12.23-25.33,28.37-27.88,10.52-1.66,20.35,5.49,20.11,16.08-.17,7.33-1.54,14.98-4.09,21.84-9.59,25.77-18.78,51.68-22.65,78.99-1.86,13.11-1.68,26.52-2.06,39.8-.09,3.01-.33,7.15,4.4,7.71,4.25,.5,8.79-2.54,9.94-6.51,6.01-20.76,11.96-41.55,18-62.3,.97-3.35,2.8-6.51,3.36-9.91,2.21-13.59,13.75-17.5,24.62-24.46-.68,3.23-.94,5.2-1.5,7.09-6.25,21.03-12.77,41.99-18.73,63.1-2.25,7.97-3.25,16.29-4.85,24.45-.28,1.45-.29,3.24-1.15,4.25-7.85,9.17-16.06,17.92-28.72,20.35-8.84,1.7-14.62-1.65-17.27-10.15-4.66-14.96-2.61-30.03-.5-45.04,4.21-29.9,15.11-57.85,25.01-86.12,2.11-6.01,3.36-12.57,3.53-18.92,.09-3.49-2.21-7.65-4.63-10.47-4.59-5.33-12.07-4.88-15.74,1.1-2.7,4.4-5.25,9.76-5.32,14.73-.15,11.08,1.06,22.2,2.24,33.25,.41,3.81,.5,7.08-1.61,10.44-2.89,4.57-5.4,9.38-8.96,14.17-4.65-14.42-10.34-27.87-22.54-38.3Z"/>
    <path class="cls-2" d="M243.99,252.9c4.9-9.79,4.05-18.79,2.7-27.97-.64-4.34-.85-9.06,.18-13.26,1.96-8.01,9.99-10.93,16.34-5.21,6.94,6.24,12.56,3.55,18.84,.14,1.41-.77,2.85-1.49,4.34-2.26,2.82,8.8,.51,14.03-6.46,16.45-4.58,1.59-7.35-.8-9.94-3.74-2.16-2.46-4.09-4.94-7.91-3.23-3.74,1.67-3.39,4.92-3.25,8.11,.02,.5-.02,1.03,.14,1.49,4.92,14.35,2.72,27.84-6.1,41.62,5.24,1.66,9.62,3.79,14.19,4.37,17.5,2.23,21.12,16.7,18.62,28.39-1.46,6.82-2.69,13.69-3.76,20.58-.74,4.79,.48,9.23,3.45,13.16,.5,.66,.62,1.62,.28,2.81-4.75-3.23-7.63-7.91-8.55-13.37-.93-5.53-1.06-11.24-1.07-16.87-.02-10.33-3.07-14.73-13-17.98-5.98-1.96-11.94-4-17.94-6.02-4.45,9.55-.82,19.51,8.83,23.66,3.21,1.38,6.47,2.64,9.59,4.2,11.18,5.6,12.24,16.57,3.07,25.06-5.53,5.12-11.15,10.65-14.88,17.08-3.2,5.51-3.81,12.55-5.5,18.92-.33,1.22-.39,2.52-.62,4.11-4.33-1.32-4.11-4.93-4.5-7.73-1.77-12.63,2.25-23.61,10.13-33.37,3.64-4.51,7.27-9.03,8.23-15.98-2.91,.52-5.4,.61-7.61,1.44-8.26,3.1-13.77,1.49-17.77-6.42-5.12-10.11-6.47-20.9-4.05-32.06,.39-1.78,.69-3.76,1.68-5.19,3.73-5.4,2.29-10.22-.42-15.6-4.85-9.64-8.84-19.71-13.64-29.37-1.39-2.8-4.34-4.83-7.05-7.72-3.39,6.01-2.66,10.97-.62,15.18,1.77,3.65,1.16,6.08-.9,8.93-1.53,2.11-2.85,4.37-4.32,6.65-7.57-8.16-6.81-27.85,1.07-34.56,3.6-3.06,7.72-2.67,11.79-1.2,7.55,2.72,12.07,8.57,15.57,15.41,3.46,6.78,6.89,13.58,10.85,21.37Z"/>
    <path class="cls-2" d="M569.06,294.31c8.5,9.63,18.17,12.2,29.1,9.76,4.77-1.06,9.19-3.68,13.8-5.48,4.31-1.68,8.55-4.01,13.03-4.67,10.48-1.53,16.14,6.32,12,16-1.43,3.36-2.99,6.66-4.19,9.32,4.01,2.95,7.78,5.72,12.8,9.41-2.77,.8-4.04,1.44-5.34,1.5-5.16,.25-10.33,.5-15.49,.42-7.42-.11-9.49-3.95-5.89-10.37,1.7-3.04,3.74-6.06,4.58-9.35,.75-2.93,.96-8.5-.13-8.92-3.19-1.23-7.33-1.19-10.75-.31-3.94,1.02-7.43,3.67-11.25,5.27-9.75,4.06-19.74,8.06-30.3,3.47-4.9-2.13-9.17-5.73-13.59-8.58-1.48,6.78-3.15,14.42-4.85,22.22,5.8-.62,12.09-1.57,18.42-1.92,16.12-.89,31.14,2.58,44.19,12.5,14.46,10.99,21.76,26.24,24.49,43.74,.74,4.73,2.5,6.1,6.91,6.17,6.32,.09,12.63,.7,18.95,1.16,1.03,.07,2.04,.48,2.96,1.6-6.98,0-13.96,.09-20.93-.03-3.99-.07-7.97-.65-11.97-.71-3.99-.06-6.05-1.77-6.73-5.77-1.91-11.16-6.11-21.4-13.22-30.31-14.38-18.02-33.75-24.07-55.89-22.45-8.18,.6-16.25,2.68-24.32,4.08,3.06-7.92,6.54-15.86,9.18-24.07,2.74-8.54,1.72-17.26-.95-26.13,9,3.95,16.69,10.67,27.2,9.14-8.97-2.42-15.54-7.73-20.55-15.01,.38-.47,.75-.95,1.13-1.42,1.21,1.09,2.32,2.33,3.65,3.25,4.46,3.1,8.71,6.76,13.63,8.8,2.16,.9,6.93-.7,8.45-2.73,6.01-7.95,11.25-16.47,16.62-24.89,.69-1.08,.8-2.85,.54-4.18-.95-4.89-2.42-9.69-3.14-14.61-.25-1.68,.59-4.53,1.86-5.27,14.24-8.27,28.65-16.24,43.04-24.23,.88-.49,2.01-.51,3.03-.75,.23,.37,.46,.75,.69,1.12-1.26,.99-2.42,2.15-3.8,2.93-9.24,5.29-18.36,10.84-27.88,15.58-5.23,2.61-7.57,5.45-4.35,11.69,7.73,.73,16.12,1.56,24.51,2.31,6.3,.57,12.61,1.14,18.92,1.51,2.97,.18,4.09,1.26,3.73,4.35-.51,4.46-1.05,8.98-.83,13.44,.6,12.37,2.27,14.14,13.71,16.08-1.4,4.6-6.59,9.25-10.95,9.31-5.08,.07-8.99-2.7-10.13-7.38-1.54-6.38-1.98-13.03-2.73-19.59-.26-2.3-.04-4.66-.04-7.59-10.94-.78-21.97-1.57-32.02-2.29-1.23,3.5-1.79,6.67-3.36,9.21-4.54,7.37-9.73,14.33-14.22,21.73-4.69,7.74-10.26,13.55-21.34,11.95Z"/>
    <path class="cls-2" d="M734.86,356.8c.88-7.84,1.74-15.39,2.69-23.85,1.54,1.22,2.9,1.96,3.81,3.07,10.21,12.52,9.05,26.04,3.28,39.87-.37,.89-1.97,2.22-2.31,2.05-4.53-2.38-10.43-2.46-13.01-8.14-6.94-15.26-15.47-29.45-28.06-40.85-.12-.11-.24-.23-.37-.33-5.15-4.06-9.84-9.79-17.53-6.14-5.11,2.42-8.41,12.9-7.13,20.64,1.5,9.09,6.56,15.91,13.6,21.37,11.04,8.57,22.42,16.73,33.23,25.57,4.7,3.84,8.78,8.66,12.31,13.63,1.98,2.8,2.91,6.76,3.14,10.28,.42,6.37-4.18,9.9-10.79,8.93-15.47-2.28-30.91-4.85-46.42-6.83-9.21-1.17-18.53-1.44-28.29-2.15-.38,6.64-4.43,8.75-9.59,10.18-3.24,.9-6.17,2.93-10.63,5.14,1.09-3.73,1.56-6.39,2.62-8.78,8.57-19.27,3.94-16.46,23.4-15.52,19.4,.93,38.69,4.17,58.05,6.23,2.41,.26,4.91-.45,7.37-.71-.71-2.63-.77-5.71-2.24-7.82-7.21-10.33-17.62-17.12-28.03-23.69-11.51-7.26-21.17-16.14-27.36-28.38-5.79-11.43-4.55-23.59,2.94-31.14,4.77-4.81,10.34-6.24,16.89-4.36,19.55,5.63,32.86,18.86,43.46,35.43,1.25,1.95,2.48,3.92,3.73,5.86,.07,.1,.29,.11,1.24,.43Z"/>
    <path class="cls-2" d="M564.8,219.25v-16.22c8.15-1.54,9.53-.38,9.99,7.04,.34,5.47,1.66,10.93,1.54,16.37-.07,3.29-1.17,7.55-3.43,9.53-2.83,2.48-6.46-.13-8.57-2.8-5.47-6.91-10.52-14.14-15.97-21.06-3.28-4.16-6.72-8.27-10.61-11.84-2.23-2.05-5.36-3.46-8.32-4.34-9.31-2.79-13.04-.01-13.13,9.49-.29,30.93,3.37,61.47,9.6,91.72,.57,2.78,.09,4.56-2.25,6.4-8.04,6.31-15.21,13.47-19.84,22.79-2.67,5.38-3.93,10.91-2.1,16.89,.33,1.09,.34,3.05-.31,3.56-5.84,4.56-11.86,8.89-18.17,13.53-3.13-6.32-1.87-11.84-.02-17.13,5.02-14.3,14.17-26.06,24.69-36.53,5.44-5.41,6.88-10.12,5.28-17.64-5.95-27.92-8.94-56.21-8.22-84.82,.02-.8-.18-1.61-.31-2.72-12.8,2.37-25.58,4.61-34.74-7.78-5.34-7.22-7.36-18.88-4.45-25.62,4.37,6.12,12.17,8.33,13.8,16.94,1.35,7.08,8.6,11.96,16.87,11.42,8.53-.55,17.1-2.18,25.39-4.36,14.95-3.92,24.56-.78,33.21,12.02,3.12,4.62,6.17,9.28,10.08,15.17Z"/>
    <path class="cls-2" d="M461.19,325.55c-27.64,.08-51.65-8.55-70.56-30.49-5.09,5.14-11.41,9.02-19.16,8-4.2-.55-9.08-2.01-12.03-4.78-7.87-7.39-7.05-19.17,.97-27.75,7.35-7.86,14.87-7.54,25.85,1.1,2.85-7.42,1.63-45.09-1.54-58.02-8.2-2.16-15.92-3.38-22.98-6.25-10.24-4.16-12.6-12.09-7.71-22.01,.66-1.34,1.46-2.6,2.59-4.58-7.17,2.62-12.42-.77-18.21-3.57,7.91-8.15,30.49-7.3,38.66,1.21-2.17,1.75-4.38,3.41-6.45,5.23-4.76,4.17-7.71,9.15-6.69,15.78,1.01,6.52,5.02,9.15,11.39,7.42,1.44-.39,3.22-.58,4.17-1.54,5.59-5.61,10.23-1.4,14.82,1.41,1.27,.78,2.27,2.92,2.38,4.5,1.21,18.09,2.49,36.17,3.15,54.29,.2,5.54-1.58,11.14-2.18,16.74-.19,1.75-.04,4.04,.94,5.32,4.65,6.07,9.87,11.71,14.46,17.81,5.5,7.31,12.94,9.87,21.64,10.18,5.82,.21,11.78-.02,17.39,1.25,3.77,.86,7.03,3.99,10.52,6.1-.46,.89-.93,1.77-1.39,2.66Zm-86.64-54.93c-7.34,5.62-10.7,15.38-7.43,21.84,.82,1.62,4.35,3.76,4.7,3.46,4.14-3.64,8.85-7.19,11.32-11.88,1-1.9-2.94-6.57-4.9-9.82-.82-1.36-2.32-2.3-3.7-3.6Z"/>
    <path class="cls-2" d="M410.15,240.77c20.95-6.54,33.67-20,39.58-40.36,3.86,1.18,7.47,1.9,10.68,3.45,1.23,.59,2.04,2.98,2.24,4.65,.91,7.23,.56,14.75,2.44,21.69,3.68,13.57,12.87,19.42,26.88,18.68,1.48-.08,2.96-.14,4.44-.2l.81,1.26c-1.45,1.08-2.81,2.32-4.36,3.22-7.61,4.41-15.8,8.04-22.76,13.3-5.14,3.88-9.11,9.57-12.84,14.97-1.75,2.53-2.2,6.27-2.39,9.51-.44,7.43-.57,7.85-8.74,9.79-6.03-23.06-20.47-41.3-35.98-59.96Zm12.2-.72c8.94,13.19,17.68,26.11,26.49,39.11,6.52-11.4,16.91-19.07,28.55-26.87-17.07-3.19-22.81-15.58-26.86-29.96-7.69,9.6-18.19,13.79-28.18,17.71Z"/>
    <path class="cls-2" d="M361.21,242.81c-13.7,18.39-26.13,36.74-29.4,59.84-5.54-2.08-8.93-3.81-9.37-10.37-.69-10.36-7.51-18.12-15.64-23.92-7.8-5.56-16.44-9.93-24.7-14.84-1.57-.93-3.1-1.94-4.19-3.98,2.71,0,5.42,.04,8.12,0,10.4-.19,17.91-5.39,19.73-15.54,1.36-7.57,1.21-15.54,.69-23.26-.28-4.21,.45-6.2,4.53-7.01,2.25-.44,4.42-1.3,7.34-2.19,7.82,20.07,21.65,34.23,42.89,41.27Zm-34.05,37.68c7.4-12.92,14.77-25.79,21.64-37.78-9.55-5.6-19.57-11.47-29.59-17.34-1.94,12.46-6.37,24.22-22.46,27.57,12.28,7.89,23.07,16.1,30.41,27.55Z"/>
  </g>
  <g>
    <path class="cls-1" d="M56.93,339.45c-10.05,2.23-14.21,.92-16.59-6.43,6.18,5.45,11.93,5.54,17.16,2.36-1.55-3.08-3.09-6.12-4.62-9.17,.69-.33,1.38-.66,2.08-.99,.53,1.14,1.01,2.32,1.61,3.43,1.86,3.48,4.52,4.78,8.23,2.8,4.41-2.35,7.47-4.94,6.94-11.07-1.99-22.88-2.91-45.86-5.15-68.71-.98-10.03,6.62-13.51,11.46-20.33,9.01,21.77,17.65,42.65,26.71,64.54,8.45-9.67,15.99-18.27,23.49-26.9,7.53-8.68,14.91-17.48,22.61-26.01,1.29-1.43,3.76-2.05,5.8-2.47,4.13-.85,8.34-1.3,13.93-2.12-1.75,2.34-2.58,3.87-3.79,5-18.67,17.56-37.33,35.13-56.16,52.52-2.6,2.4-3.33,3.99-1.53,7.41,8,15.19,16.1,30.3,27.72,43.09,3.27,3.59,7.83,5.98,11.54,9.21,.96,.84,1.78,3.29,1.26,4.14-2.77,4.52-5.91,8.83-9.06,13.1-2.3,3.12-5.13,3.78-7.77,.49-5.92-7.35-12.39-14.4-17.36-22.37-7.8-12.51-14.55-25.67-21.74-38.55-9.58,6.24-11.44,17.72-4.23,26.8,1.03,1.3,2.03,2.64,2.95,4.03,6.98,10.55,6.68,20.04-1.45,31.5-1.78-2.96-3.39-5.66-5.61-9.35-.69,9.42-.99,17.85-2.03,26.18-.63,5.04-1.68,10.25-3.78,14.82-4.24,9.25-14.01,10.49-20.53,2.77-14.21-16.86-19.17-50.28-2.56-68.44,.2-.22,.23-.6,.48-1.31Zm14.25,59.47c.23-2.24,.4-3.15,.41-4.08,.31-15.47,.63-30.94,.87-46.41,.08-4.95-2.19-7.62-6.66-8.17-4.12-.51-6.96,1.65-8.01,6.32-3.74,16.62,.12,31.93,8.31,46.41,1.07,1.89,2.85,3.37,5.08,5.93Zm14.23-105.5c-.38,.08-.76,.17-1.14,.25,.45,6.79,.9,13.58,1.41,21.24,2.74-2.62,4.72-4.51,6.7-6.41-2.44-5.28-4.71-10.18-6.98-15.09Z"/>
    <path class="cls-1" d="M137.89,308.21c3.7-3.9,6.76-7.4,10.17-10.52,.75-.69,2.99-.52,4.05,.1,1.49,.88,2.52,2.55,4.12,4.29,.84-3.93,1.42-7.59,2.42-11.14,4.11-14.69,12.23-25.33,28.37-27.88,10.52-1.66,20.35,5.49,20.11,16.08-.17,7.33-1.54,14.98-4.09,21.84-9.59,25.77-18.78,51.68-22.65,78.99-1.86,13.11-1.68,26.52-2.06,39.8-.09,3.01-.33,7.15,4.4,7.71,4.25,.5,8.79-2.54,9.94-6.51,6.01-20.76,11.96-41.55,18-62.3,.97-3.35,2.8-6.51,3.36-9.91,2.21-13.59,13.75-17.5,24.62-24.46-.68,3.23-.94,5.2-1.5,7.09-6.25,21.03-12.77,41.99-18.73,63.1-2.25,7.97-3.25,16.29-4.85,24.45-.28,1.45-.29,3.24-1.15,4.25-7.85,9.17-16.06,17.92-28.72,20.35-8.84,1.7-14.62-1.65-17.27-10.15-4.66-14.96-2.61-30.03-.5-45.04,4.21-29.9,15.11-57.85,25.01-86.12,2.11-6.01,3.36-12.57,3.53-18.92,.09-3.49-2.21-7.65-4.63-10.47-4.59-5.33-12.07-4.88-15.74,1.1-2.7,4.4-5.25,9.76-5.32,14.73-.15,11.08,1.06,22.2,2.24,33.25,.41,3.81,.5,7.08-1.61,10.44-2.89,4.57-5.4,9.38-8.96,14.17-4.65-14.42-10.34-27.87-22.54-38.3Z"/>
    <path class="cls-1" d="M253.59,251.68c4.9-9.79,4.05-18.79,2.7-27.97-.64-4.34-.85-9.06,.18-13.26,1.96-8.01,9.99-10.93,16.34-5.21,6.94,6.24,12.56,3.55,18.84,.14,1.41-.77,2.85-1.49,4.34-2.26,2.82,8.8,.51,14.03-6.46,16.45-4.58,1.59-7.35-.8-9.94-3.74-2.16-2.46-4.09-4.94-7.91-3.23-3.74,1.67-3.39,4.92-3.25,8.11,.02,.5-.02,1.03,.14,1.49,4.92,14.35,2.72,27.84-6.1,41.62,5.24,1.66,9.62,3.79,14.19,4.37,17.5,2.23,21.12,16.7,18.62,28.39-1.46,6.82-2.69,13.69-3.76,20.58-.74,4.79,.48,9.23,3.45,13.16,.5,.66,.62,1.62,.28,2.81-4.75-3.23-7.63-7.91-8.55-13.37-.93-5.53-1.06-11.24-1.07-16.87-.02-10.33-3.07-14.73-13-17.98-5.98-1.96-11.94-4-17.94-6.02-4.45,9.55-.82,19.51,8.83,23.66,3.21,1.38,6.47,2.64,9.59,4.2,11.18,5.6,12.24,16.57,3.07,25.06-5.53,5.12-11.15,10.65-14.88,17.08-3.2,5.51-3.81,12.55-5.5,18.92-.33,1.22-.39,2.52-.62,4.11-4.33-1.32-4.11-4.93-4.5-7.73-1.77-12.63,2.25-23.61,10.13-33.37,3.64-4.51,7.27-9.03,8.23-15.98-2.91,.52-5.4,.61-7.61,1.44-8.26,3.1-13.77,1.49-17.77-6.42-5.12-10.11-6.47-20.9-4.05-32.06,.39-1.78,.69-3.76,1.68-5.19,3.73-5.4,2.29-10.22-.42-15.6-4.85-9.64-8.84-19.71-13.64-29.37-1.39-2.8-4.34-4.83-7.05-7.72-3.39,6.01-2.66,10.97-.62,15.18,1.77,3.65,1.16,6.08-.9,8.93-1.53,2.11-2.85,4.37-4.32,6.65-7.57-8.16-6.81-27.85,1.07-34.56,3.6-3.06,7.72-2.67,11.79-1.2,7.55,2.72,12.07,8.57,15.57,15.41,3.46,6.78,6.89,13.58,10.85,21.37Z"/>
    <path class="cls-1" d="M578.65,293.09c8.5,9.63,18.17,12.2,29.1,9.76,4.77-1.06,9.19-3.68,13.8-5.48,4.31-1.68,8.55-4.01,13.03-4.67,10.48-1.53,16.14,6.32,12,16-1.43,3.36-2.99,6.66-4.19,9.32,4.01,2.95,7.78,5.72,12.8,9.41-2.77,.8-4.04,1.44-5.34,1.5-5.16,.25-10.33,.5-15.49,.42-7.42-.11-9.49-3.95-5.89-10.37,1.7-3.04,3.74-6.06,4.58-9.35,.75-2.93,.96-8.5-.13-8.92-3.19-1.23-7.33-1.19-10.75-.31-3.94,1.02-7.43,3.67-11.25,5.27-9.75,4.06-19.74,8.06-30.3,3.47-4.9-2.13-9.17-5.73-13.59-8.58-1.48,6.78-3.15,14.42-4.85,22.22,5.8-.62,12.09-1.57,18.42-1.92,16.12-.89,31.14,2.58,44.19,12.5,14.46,10.99,21.76,26.24,24.49,43.74,.74,4.73,2.5,6.1,6.91,6.17,6.32,.09,12.63,.7,18.95,1.16,1.03,.07,2.04,.48,2.96,1.6-6.98,0-13.96,.09-20.93-.03-3.99-.07-7.97-.65-11.97-.71-3.99-.06-6.05-1.77-6.73-5.77-1.91-11.16-6.11-21.4-13.22-30.31-14.38-18.02-33.75-24.07-55.89-22.45-8.18,.6-16.25,2.68-24.32,4.08,3.06-7.92,6.54-15.86,9.18-24.07,2.74-8.54,1.72-17.26-.95-26.13,9,3.95,16.69,10.67,27.2,9.14-8.97-2.42-15.54-7.73-20.55-15.01,.38-.47,.75-.95,1.13-1.42,1.21,1.09,2.32,2.33,3.65,3.25,4.46,3.1,8.71,6.76,13.63,8.8,2.16,.9,6.93-.7,8.45-2.73,6.01-7.95,11.25-16.47,16.62-24.89,.69-1.08,.8-2.85,.54-4.18-.95-4.89-2.42-9.69-3.14-14.61-.25-1.68,.59-4.53,1.86-5.27,14.24-8.27,28.65-16.24,43.04-24.23,.88-.49,2.01-.51,3.03-.75,.23,.37,.46,.75,.69,1.12-1.26,.99-2.42,2.15-3.8,2.93-9.24,5.29-18.36,10.84-27.88,15.58-5.23,2.61-7.57,5.45-4.35,11.69,7.73,.73,16.12,1.56,24.51,2.31,6.3,.57,12.61,1.14,18.92,1.51,2.97,.18,4.09,1.26,3.73,4.35-.51,4.46-1.05,8.98-.83,13.44,.6,12.37,2.27,14.14,13.71,16.08-1.4,4.6-6.59,9.25-10.95,9.31-5.08,.07-8.99-2.7-10.13-7.38-1.54-6.38-1.98-13.03-2.73-19.59-.26-2.3-.04-4.66-.04-7.59-10.94-.78-21.97-1.57-32.02-2.29-1.23,3.5-1.79,6.67-3.36,9.21-4.54,7.37-9.73,14.33-14.22,21.73-4.69,7.74-10.26,13.55-21.34,11.95Z"/>
    <path class="cls-1" d="M744.46,355.57c.88-7.84,1.74-15.39,2.69-23.85,1.54,1.22,2.9,1.96,3.81,3.07,10.21,12.52,9.05,26.04,3.28,39.87-.37,.89-1.97,2.22-2.31,2.05-4.53-2.38-10.43-2.46-13.01-8.14-6.94-15.26-15.47-29.45-28.06-40.85-.12-.11-.24-.23-.37-.33-5.15-4.06-9.84-9.79-17.53-6.14-5.11,2.42-8.41,12.9-7.13,20.64,1.5,9.09,6.56,15.91,13.6,21.37,11.04,8.57,22.42,16.73,33.23,25.57,4.7,3.84,8.78,8.66,12.31,13.63,1.98,2.8,2.91,6.76,3.14,10.28,.42,6.37-4.18,9.9-10.79,8.93-15.47-2.28-30.91-4.85-46.42-6.83-9.21-1.17-18.53-1.44-28.29-2.15-.38,6.64-4.43,8.75-9.59,10.18-3.24,.9-6.17,2.93-10.63,5.14,1.09-3.73,1.56-6.39,2.62-8.78,8.57-19.27,3.94-16.46,23.4-15.52,19.4,.93,38.69,4.17,58.05,6.23,2.41,.26,4.91-.45,7.37-.71-.71-2.63-.77-5.71-2.24-7.82-7.21-10.33-17.62-17.12-28.03-23.69-11.51-7.26-21.17-16.14-27.36-28.38-5.79-11.43-4.55-23.59,2.94-31.14,4.77-4.81,10.34-6.24,16.89-4.36,19.55,5.63,32.86,18.86,43.46,35.43,1.25,1.95,2.48,3.92,3.73,5.86,.07,.1,.29,.11,1.24,.43Z"/>
    <path class="cls-1" d="M574.4,218.03v-16.22c8.15-1.54,9.53-.38,9.99,7.04,.34,5.47,1.66,10.93,1.54,16.37-.07,3.29-1.17,7.55-3.43,9.53-2.83,2.48-6.46-.13-8.57-2.8-5.47-6.91-10.52-14.14-15.97-21.06-3.28-4.16-6.72-8.27-10.61-11.84-2.23-2.05-5.36-3.46-8.32-4.34-9.31-2.79-13.04-.01-13.13,9.49-.29,30.93,3.37,61.47,9.6,91.72,.57,2.78,.09,4.56-2.25,6.4-8.04,6.31-15.21,13.47-19.84,22.79-2.67,5.38-3.93,10.91-2.1,16.89,.33,1.09,.34,3.05-.31,3.56-5.84,4.56-11.86,8.89-18.17,13.53-3.13-6.32-1.87-11.84-.02-17.13,5.02-14.3,14.17-26.06,24.69-36.53,5.44-5.41,6.88-10.12,5.28-17.64-5.95-27.92-8.94-56.21-8.22-84.82,.02-.8-.18-1.61-.31-2.72-12.8,2.37-25.58,4.61-34.74-7.78-5.34-7.22-7.36-18.88-4.45-25.62,4.37,6.12,12.17,8.33,13.8,16.94,1.35,7.08,8.6,11.96,16.87,11.42,8.53-.55,17.1-2.18,25.39-4.36,14.95-3.92,24.56-.78,33.21,12.02,3.12,4.62,6.17,9.28,10.08,15.17Z"/>
    <path class="cls-1" d="M470.79,324.33c-27.64,.08-51.65-8.55-70.56-30.49-5.09,5.14-11.41,9.02-19.16,8-4.2-.55-9.08-2.01-12.03-4.78-7.87-7.39-7.05-19.17,.97-27.75,7.35-7.86,14.87-7.54,25.85,1.1,2.85-7.42,1.63-45.09-1.54-58.02-8.2-2.16-15.92-3.38-22.98-6.25-10.24-4.16-12.6-12.09-7.71-22.01,.66-1.34,1.46-2.6,2.59-4.58-7.17,2.62-12.42-.77-18.21-3.57,7.91-8.15,30.49-7.3,38.66,1.21-2.17,1.75-4.38,3.41-6.45,5.23-4.76,4.17-7.71,9.15-6.69,15.78,1.01,6.52,5.02,9.15,11.39,7.42,1.44-.39,3.22-.58,4.17-1.54,5.59-5.61,10.23-1.4,14.82,1.41,1.27,.78,2.27,2.92,2.38,4.5,1.21,18.09,2.49,36.17,3.15,54.29,.2,5.54-1.58,11.14-2.18,16.74-.19,1.75-.04,4.04,.94,5.32,4.65,6.07,9.87,11.71,14.46,17.81,5.5,7.31,12.94,9.87,21.64,10.18,5.82,.21,11.78-.02,17.39,1.25,3.77,.86,7.03,3.99,10.52,6.1-.46,.89-.93,1.77-1.39,2.66Zm-86.64-54.93c-7.34,5.62-10.7,15.38-7.43,21.84,.82,1.62,4.35,3.76,4.7,3.46,4.14-3.64,8.85-7.19,11.32-11.88,1-1.9-2.94-6.57-4.9-9.82-.82-1.36-2.32-2.3-3.7-3.6Z"/>
    <path class="cls-1" d="M419.74,239.55c20.95-6.54,33.67-20,39.58-40.36,3.86,1.18,7.47,1.9,10.68,3.45,1.23,.59,2.04,2.98,2.24,4.65,.91,7.23,.56,14.75,2.44,21.69,3.68,13.57,12.87,19.42,26.88,18.68,1.48-.08,2.96-.14,4.44-.2l.81,1.26c-1.45,1.08-2.81,2.32-4.36,3.22-7.61,4.41-15.8,8.04-22.76,13.3-5.14,3.88-9.11,9.57-12.84,14.97-1.75,2.53-2.2,6.27-2.39,9.51-.44,7.43-.57,7.85-8.74,9.79-6.03-23.06-20.47-41.3-35.98-59.96Zm12.2-.72c8.94,13.19,17.68,26.11,26.49,39.11,6.52-11.4,16.91-19.07,28.55-26.87-17.07-3.19-22.81-15.58-26.86-29.96-7.69,9.6-18.19,13.79-28.18,17.71Z"/>
    <path class="cls-1" d="M370.8,241.59c-13.7,18.39-26.13,36.74-29.4,59.84-5.54-2.08-8.93-3.81-9.37-10.37-.69-10.36-7.51-18.12-15.64-23.92-7.8-5.56-16.44-9.93-24.7-14.84-1.57-.93-3.1-1.94-4.19-3.98,2.71,0,5.42,.04,8.12,0,10.4-.19,17.91-5.39,19.73-15.54,1.36-7.57,1.21-15.54,.69-23.26-.28-4.21,.45-6.2,4.53-7.01,2.25-.44,4.42-1.3,7.34-2.19,7.82,20.07,21.65,34.23,42.89,41.27Zm-34.05,37.68c7.4-12.92,14.77-25.79,21.64-37.78-9.55-5.6-19.57-11.47-29.59-17.34-1.94,12.46-6.37,24.22-22.46,27.57,12.28,7.89,23.07,16.1,30.41,27.55Z"/>
  </g>
</svg>